<?xml version="1.0" encoding="utf-8"?>
<!-- Generator: Adobe Illustrator 26.0.3, SVG Export Plug-In . SVG Version: 6.00 Build 0)  -->
<svg version="1.1" id="Capa_1" xmlns="http://www.w3.org/2000/svg" xmlns:xlink="http://www.w3.org/1999/xlink" x="0px" y="0px"
	 viewBox="0 0 100 100" style="enable-background:new 0 0 100 100;" xml:space="preserve">
<style type="text/css">
	.st0{fill:none;stroke:#FFFFFF;stroke-width:2.7114;stroke-miterlimit:10;}
</style>
<g>
	<path class="st0" d="M49.7,30.9c4-0.3,8.2,0.8,10.8,3.8c1.7,2,2.5,5.1,0.8,7.1c-0.8,0.9-2,1.4-3.1,1.8c-5.5,2-11.3,4.1-17,2.9
		c-0.4-0.1-0.9-0.2-1.2-0.5c-0.3-0.3-0.5-0.7-0.6-1.2c-0.9-3.7,0.4-7.1,2.2-10.2C43.3,31.8,46.6,31.2,49.7,30.9z"/>
	<path class="st0" d="M50.2,46.3c0,9.7,0,19.4-0.1,29.1"/>
	<path class="st0" d="M49.9,56c-1.6,0.1-3.1,1-4.4,1.9s-2.7,2-4.2,2.4c-1.6,0.4-3.5,0.1-4.4-1.2"/>
	<path class="st0" d="M50.2,56.1c2.6,2.5,5.9,4.2,9.5,4.8"/>
	<path class="st0" d="M49.3,74.1c-2,2.9-6.1,6.7-7.8,9.8c-0.8,1.3-1.1,2.8-1.8,4.2c-0.7,1.4-1.7,2.7-3.2,3.1"/>
	<path class="st0" d="M50.2,74.1c2.2,1.4,5.5,4.6,7.8,6c0.8,0.5,1.7,1.1,2.6,1.5c0.9,0.4,1.9,0.6,2.8,1c1.3,0.5,2.4,1.3,3.5,2.1"/>
</g>
</svg>
