<?xml version="1.0" encoding="utf-8"?>
<!-- Generator: Adobe Illustrator 26.0.3, SVG Export Plug-In . SVG Version: 6.00 Build 0)  -->
<svg version="1.1" id="Capa_1" xmlns="http://www.w3.org/2000/svg" xmlns:xlink="http://www.w3.org/1999/xlink" x="0px" y="0px"
	 viewBox="0 0 512 512" style="enable-background:new 0 0 512 512;" xml:space="preserve">
<style type="text/css">
	.st0{fill:#FFFFFF;}
	.st1{fill:#E89600;}
	.st2{fill:url(#SVGID_1_);}
</style>
<g>
	
		<image style="overflow:visible;opacity:0.45;" width="2087" height="1603" xlink:href="45FBF7CFAF0517E.png"  transform="matrix(0.24 0 0 0.24 13.0774 65.8774)">
	</image>
	<g>
		<g>
			<g>
				<g>
					<path class="st0" d="M455.3,230.2c-4.1-29.4-19.5-55.5-43.2-73.3c-23.7-17.9-52.9-25.4-82.3-21.3l0,0
						c-20.4,2.9-39.6,11.5-55.4,24.5c-0.4-0.7-0.8-1.4-1.3-2c1-17.4-4.1-35.3-15.7-50.1c-8.9-11.4-23.3-17.2-37.6-15.2
						c-7,1-13.7,3.8-19.3,8.2L140,148.3c-12.4-13.7-31.2-21.3-50.8-18.5c-31.4,4.4-53.4,33.6-49,65c2,14.5,9.3,26.9,19.6,35.7
						c-6.9,17.7-9.4,37.2-6.7,56.2l7.5,53.1c4.4,31.4,33.6,53.4,65,49c9.5-1.3,18.1-4.9,25.4-10.1c8.5,3,17.7,4.1,27.2,2.7l0.4-0.1
						c19.1-2.7,36.8-10.1,51.7-21.5c11.2,7.3,25,10.7,39.3,8.7c14.3-2,26.6-9.1,35.4-19.3c3.1,1.2,6.2,2.2,9.4,3.2
						c-1.9,5.9-2.5,12.3-1.6,18.8c1.6,11.6,7.5,21.8,16.8,28.9c9.3,7.1,20.8,10.1,32.3,8.6l0.1,0l0.1,0c0.1,0,0.2,0,0.2,0l-0.1,0
						l72.2-10.1l0.3,0c23.7-3.3,40.4-25.4,37.2-49.1c-1.5-11.6-7.5-21.8-16.8-28.9c6.4-10.8,9.3-23.8,7.5-37.2L455.3,230.2z"/>
				</g>
			</g>
			<g>
				<path class="st1" d="M334.5,348.7l6.1-0.9l5.4,38.3l-6.1,0.9L334.5,348.7z"/>
				<path class="st1" d="M353.4,348.1c2.2-0.3,4.2,1,4.5,3.1c0.3,2.1-1.2,3.9-3.4,4.2c-2.2,0.3-4.1-1.2-4.4-3.1
					C349.8,350.4,351.2,348.5,353.4,348.1z M352.1,360.5l6.1-0.9l3.4,24.3l-6.1,0.9L352.1,360.5z"/>
				<path class="st1" d="M365.8,344.3l6.1-0.9l2.4,17.1l0.2,0c1-1.8,3.2-4.2,7.7-4.9c6.9-1,12.5,3.9,13.5,11.1
					c1,7.2-2.7,13.4-10.2,14.5c-3.4,0.5-6.8-0.4-9-3.1l-0.1,0l0.5,3.6l-5.8,0.8L365.8,344.3z M381.4,361.3c-4.5,0.6-6.6,4.5-6.1,8.3
					c0.5,3.8,3.7,6.9,8.2,6.3c4.5-0.6,6.6-4.5,6.1-8.3C389.1,363.8,385.9,360.7,381.4,361.3z"/>
				<path class="st1" d="M402.2,353.4l6.1-0.9l0.5,3.8l0.1,0c0.9-3,3.4-5,6.6-5.5c0.8-0.1,1.5-0.1,2.2,0l0.8,5.9c-1-0.1-2-0.2-3,0
					c-5.7,0.8-5.9,5.7-5.7,7l1.8,13l-6.1,0.9L402.2,353.4z"/>
				<path class="st1" d="M430.4,364c0.9,3.5,4,5.3,7.3,4.9c3-0.4,4.8-2.1,6.1-4.2l4.8,2.7c-2.3,3.9-5.7,5.8-9.6,6.3
					c-7.3,1-13.9-3.3-15-10.9c-1.1-7.6,4.1-13.6,11.4-14.6c6.8-1,12.1,3.2,13.3,11.6l0.2,1.7L430.4,364z M442.2,357.7
					c-0.5-3.5-3.2-5.4-7-4.9c-3.6,0.5-5.5,3.1-5.5,6.7L442.2,357.7z"/>
			</g>
			<path class="st1" d="M397.4,176.5c-18.4-13.9-41.2-19.8-64.2-16.6c-22.6,3.2-43.4,15.4-57.1,33.6c-7.7,10.1-12.9,21.9-15.5,34.2
				c-0.5-2.4-1.2-4.8-2-7.1c-0.6-1.5-1.4-3-2.3-4.2c0.7-1.7,1.3-3.4,1.8-5.1c3.7-12.9,2.1-26.4-4.3-38.1c-1.5-2.8-3.9-5-6.6-6.4
				c3.9-14.6,1.1-30.9-8.9-43.7c-3.5-4.5-9.2-6.8-14.8-6c-2.6,0.4-5.1,1.4-7.2,2.9l-0.1,0.1l-85.7,67c0-1.6-0.1-3.2-0.3-4.9
				c-1.2-8.7-5.8-16.5-12.8-21.8c-7.1-5.3-15.7-7.6-24.5-6.3c-18,2.5-30.7,19.3-28.1,37.3c2.1,15.3,14.5,26.7,29.2,28.3
				c-13.1,17.6-19.1,40.1-16.4,61.9c0,0.6,0.1,1.2,0.2,1.7l7.5,53c1.2,8.7,5.8,16.5,12.8,21.8c6.6,5,14.7,7.3,22.9,6.5
				c0.5,0,1.1-0.1,1.7-0.2c0.1,0,0.3,0,0.4-0.1c0.5-0.1,0.9-0.1,1.3-0.2c0.3-0.1,0.6-0.1,0.9-0.2c0.3-0.1,0.6-0.1,0.9-0.2
				c0.3-0.1,0.7-0.2,1-0.3c0.2-0.1,0.5-0.1,0.7-0.2c0.4-0.1,0.7-0.2,1-0.3c0.2-0.1,0.4-0.1,0.5-0.2c0.4-0.1,0.8-0.3,1.2-0.4
				c0,0,0,0,0,0c1.5-0.6,2.9-1.3,4.3-2.2c0,0,0,0,0,0c0.4-0.3,0.9-0.5,1.3-0.8c0,0,0,0,0.1,0c4.5-3,8.2-7,10.7-11.7
				c1.1,1.2,2.4,2.2,3.7,3.2c7,5.3,15.7,7.6,24.5,6.3l0.5-0.1c22.4-3.1,42.2-14.6,56.1-32.3c2.2,5.2,5.8,9.7,10.4,13.2
				c7.1,5.3,15.7,7.6,24.5,6.3l0,0c15-2.1,26.3-14.1,28.2-28.5c18,13.1,40.8,18.8,62.9,15.6l0.4-0.1c8.7-1.2,16.5-5.8,21.8-12.8
				c1-1.3,1.9-2.7,2.7-4.1c7.1,7.2,17.4,11.1,28.2,9.6h0c18-2.5,30.7-19.3,28.1-37.3l-7.5-53C427.8,211,415.6,190.2,397.4,176.5z
				 M179.6,283.6c-2.4,3.1-6.6,7-13.6,8l-0.5,0.1c-7.5,1.1-14,4.6-18.9,9.6l-3.8-27.1c-1-7,1.6-12.1,3.9-15.2c1-1.3,2.1-2.5,3.4-3.5
				l1.1-0.9c2.7-1.9,5.7-3.2,9.1-3.6c7-1,12.1,1.6,15.2,3.9c3.1,2.4,7,6.6,8,13.6C184.4,275.3,181.9,280.5,179.6,283.6z M257,278.8
				c-2.7,0.4-5.3,1.1-7.8,2.1c0.4-3.6,0.6-7.2,0.5-10.8c4.2-4.9,7.3-10.5,9.2-16.4c0.1,1.3,0.3,2.7,0.5,4c1,7.2,3,14.3,5.7,20.9
				C262.5,278.3,259.8,278.4,257,278.8z M369.4,269.9c-6.1-3.5-13.3-5-20.8-4l-0.5,0.1c-7,1-12.1-1.6-15.2-3.9
				c-3.1-2.4-7-6.6-8-13.6c-1-7,1.6-12.1,3.9-15.2c2.4-3.1,6.6-7,13.6-8c7-1,12.1,1.6,15.2,3.9c3.1,2.4,7,6.6,8,13.6L369.4,269.9z"
				/>
			
				<linearGradient id="SVGID_1_" gradientUnits="userSpaceOnUse" x1="993.6652" y1="193.6155" x2="993.6652" y2="413.8856" gradientTransform="matrix(0.9903 -0.1392 0.1392 0.9903 -776.1519 67.3818)">
				<stop  offset="4.000000e-02" style="stop-color:#F7DCBB"/>
				<stop  offset="0.24" style="stop-color:#E69324"/>
				<stop  offset="0.3625" style="stop-color:#B97F2D"/>
				<stop  offset="0.5939" style="stop-color:#695C3D"/>
				<stop  offset="0.7" style="stop-color:#494E43"/>
				<stop  offset="0.7875" style="stop-color:#40443B"/>
				<stop  offset="0.9377" style="stop-color:#292826"/>
				<stop  offset="0.98" style="stop-color:#221F1F"/>
			</linearGradient>
			<path class="st2" d="M394.2,180.7c-17.3-13.1-38.7-18.6-60.3-15.6c-21.2,3-40.7,14.5-53.6,31.6c-12.9,17.1-18.6,39-15.6,60.2
				c1.5,10.9,5.3,21.3,10.9,30.7c-5.2-3.1-11.5-4.5-17.9-3.6c-6.4,0.9-11.9,3.9-16.1,8.2c2.1-7.8,3-16,2.7-24.2
				c11.3-12.3,14.9-29.7,9.1-45.7c-0.7-2-2-3.7-3.7-4.9c1.2-2.5,2.2-5,3-7.7c3.3-11.5,1.9-23.6-3.9-34c-1.8-3.2-5.1-5.3-8.7-5.5
				c5.6-14.3,3.7-31-6.4-44c-2.3-3-6.1-4.5-9.9-4c-1.7,0.2-3.3,0.9-4.7,1.9l-0.1,0.1l-98.3,76.8c3.3-5.4,4.6-11.8,3.7-18.2
				c-1-7.3-4.9-13.8-10.8-18.3c-5.9-4.5-13.2-6.3-20.5-5.3c-15.1,2.1-25.7,16.2-23.6,31.3c2.1,15.1,16.2,25.7,31.3,23.6
				c1.9-0.3,3.8-0.7,5.6-1.4c-3,2.9-5.8,6.1-8.4,9.5c-12.6,16.7-18.3,38-15.8,58.7c0,0.5,0.1,1,0.2,1.5l7.5,53
				c1,7.3,4.9,13.8,10.8,18.3c5.5,4.2,12.2,6.1,19.1,5.5c0,0,0,0,0.1,0c0.2,0,0.4,0,0.6-0.1c0.3,0,0.6-0.1,0.8-0.1
				c0.5-0.1,0.9-0.1,1.4-0.2c0,0,0.1,0,0.1,0c0.4-0.1,0.8-0.2,1.2-0.3c0,0,0.1,0,0.1,0c11-2.7,19.1-11.9,20.7-22.8
				c1.9,4.2,4.8,7.8,8.5,10.6c5.9,4.5,13.2,6.3,20.5,5.3l0.5-0.1c21.5-3,40.5-14.2,53.6-31.6c2.2-2.9,4.1-5.8,5.9-8.9
				c0,1.4,0.1,2.7,0.3,4.1c1,7.3,4.9,13.8,10.8,18.3c5.9,4.5,13.2,6.3,20.5,5.3l0,0c15.1-2.1,25.7-16.2,23.6-31.3
				c-0.2-1.4-0.5-2.8-0.9-4.1c2.5,2.5,5.3,4.9,8.1,7c17.1,12.9,39,18.6,60.2,15.6l0.4-0.1c7.3-1,13.8-4.9,18.3-10.8
				c2.8-3.7,4.6-8,5.3-12.6c5,10.9,16.6,17.7,29.1,15.9h0c15.1-2.1,25.7-16.2,23.6-31.3l-7.5-53
				C422.8,213.1,411.2,193.6,394.2,180.7z M183.8,286.8c-4.2,5.6-10.2,9.1-17.1,10.1l-0.4,0.1c-11.3,1.6-20,9.8-22.9,20.1l-5.9-42.2
				c-1-6.9,0.8-13.6,4.9-19.2c1.2-1.6,2.7-3.1,4.3-4.5l1.2-1c3.4-2.5,7.3-4,11.6-4.6c6.9-1,13.6,0.7,19.2,4.9
				c5.6,4.2,9.1,10.1,10.1,17.1C189.7,274.5,188,281.2,183.8,286.8z M376.8,284.2c-1.8-2.9-4.1-5.5-7-7.7
				c-5.9-4.5-13.2-6.3-20.5-5.3l-0.5,0.1c-6.9,1-13.6-0.7-19.2-4.9c-5.6-4.2-9.1-10.2-10.1-17.1c-1-6.9,0.8-13.6,4.9-19.2
				c4.2-5.6,10.2-9.1,17.1-10.1c6.9-1,13.6,0.8,19.2,4.9c5.6,4.2,9.1,10.2,10.1,17.1L376.8,284.2z"/>
			<g>
				<path class="st0" d="M389,187.5c-14.8-11.2-34.1-16.7-53.9-13.9c-19.8,2.8-36.8,13.4-48,28.3c-11.2,14.8-16.7,34.1-13.9,53.9
					c2.8,19.8,13.4,36.8,28.3,48c14.8,11.2,34.1,16.7,53.9,13.9l0.4-0.1c10.5-1.5,17.8-11.2,16.3-21.7
					c-1.5-10.5-11.2-17.8-21.7-16.3l-0.4,0.1c-9.5,1.3-18.4-1.3-25.5-6.6c-7.1-5.4-12-13.2-13.4-22.7c-1.3-9.5,1.3-18.4,6.6-25.5
					c5.4-7.1,13.2-12,22.7-13.4c9.5-1.3,18.4,1.3,25.5,6.6c7.1,5.4,12,13.2,13.4,22.7l7.5,53.1c1.5,10.5,11.2,17.8,21.7,16.3
					c10.5-1.5,17.8-11.2,16.3-21.7l-7.5-53C414.5,215.7,403.9,198.7,389,187.5z"/>
				<path class="st0" d="M241.5,179.9L241.5,179.9c-0.6-1-1.9-1.4-2.9-0.8v0l-45.8,25.4l28.2-22c15.8-12.3,18.6-35.1,6.2-50.9
					c-0.7-0.9-2.1-1.1-3-0.4h0l-105.9,82.7l0,0c-5,3.9-9.5,8.5-13.3,13.5c-11.2,14.8-16.7,34.1-13.9,53.9l7.5,53
					c1.5,10.5,11.2,17.8,21.7,16.3c10.5-1.5,17.8-11.2,16.3-21.7l-7.5-53.1c-1.3-9.5,1.3-18.4,6.6-25.5c1.8-2.4,3.9-4.5,6.3-6.4l0,0
					l0.9-0.7c4.4-3.2,9.7-5.5,15.5-6.3c9.5-1.3,18.4,1.3,25.5,6.6c7.1,5.4,12,13.2,13.4,22.7c1.3,9.5-1.3,18.4-6.6,25.5
					c-5.4,7.1-13.2,12-22.7,13.4l-0.4,0.1c-10.5,1.5-17.8,11.2-16.3,21.7c1.5,10.5,11.2,17.8,21.7,16.3l0.4-0.1
					c19.8-2.8,36.8-13.4,48-28.3c10.5-13.9,16-31.7,14.4-50.2c10.7-9.6,15.1-25.1,9.9-39.4l0,0c-0.4-1.1-1.6-1.7-2.7-1.3l-18.2,6.6
					l2.8-1.6C244.9,219.4,251.2,197.4,241.5,179.9z"/>
				<path class="st0" d="M99.8,205.8c10.5-1.5,17.8-11.2,16.3-21.7c-1.5-10.5-11.2-17.8-21.7-16.3C84,169.2,76.7,179,78.1,189.4
					C79.6,199.9,89.3,207.3,99.8,205.8z"/>
			</g>
			<g>
				<path class="st1" d="M280.6,308.8c1.5,10.5-5.8,20.2-16.3,21.7c-10.5,1.5-20.2-5.8-21.7-16.3c-1.5-10.5,5.8-20.2,16.3-21.7
					C269.5,291,279.2,298.3,280.6,308.8z"/>
			</g>
			<g>
				<path class="st1" d="M98.5,334.4l-7.5-53c-1.5-10.5,5.8-20.2,16.3-21.7l0,0c10.5-1.5,20.2,5.8,21.7,16.3l0,0l7.5,53
					c1.5,10.5-5.8,20.2-16.3,21.7l0,0C109.7,352.2,100,344.9,98.5,334.4L98.5,334.4z"/>
			</g>
		</g>
	</g>
</g>
</svg>
