<?xml version="1.0" encoding="utf-8"?>
<!-- Generator: Adobe Illustrator 26.0.3, SVG Export Plug-In . SVG Version: 6.00 Build 0)  -->
<svg version="1.1" id="Capa_1" xmlns="http://www.w3.org/2000/svg" xmlns:xlink="http://www.w3.org/1999/xlink" x="0px" y="0px"
	 viewBox="0 0 512 512" style="enable-background:new 0 0 512 512;" xml:space="preserve">
<style type="text/css">
	.st0{fill:#45413C;}
</style>
<g>
	<path class="st0" d="M89.7,433.3c0,2.9-0.5,5.6-1.5,8c-1,2.4-2.3,4.5-4,6.2c-1.7,1.7-3.8,3.1-6.1,4.1c-2.4,1-4.9,1.5-7.7,1.5
		c-2.8,0-5.3-0.5-7.7-1.5c-2.4-1-4.4-2.4-6.1-4.1c-1.7-1.7-3.1-3.8-4-6.2c-1-2.4-1.5-5.1-1.5-8c0-2.9,0.5-5.6,1.5-8
		c1-2.4,2.3-4.5,4-6.2c1.7-1.7,3.7-3.1,6.1-4.1c2.3-1,4.9-1.5,7.7-1.5c2.8,0,5.4,0.5,7.7,1.5c2.3,1,4.4,2.4,6.1,4.1
		c1.7,1.7,3.1,3.8,4,6.2C89.2,427.7,89.7,430.4,89.7,433.3z M88.5,433.3c0-2.6-0.4-5.1-1.3-7.3c-0.9-2.3-2.1-4.3-3.7-6
		c-1.6-1.7-3.5-3-5.7-4c-2.2-1-4.7-1.5-7.3-1.5c-2.6,0-5.1,0.5-7.3,1.5c-2.2,1-4.1,2.3-5.7,4c-1.6,1.7-2.9,3.7-3.7,6
		c-0.9,2.3-1.3,4.7-1.3,7.3s0.4,5.1,1.3,7.3c0.9,2.3,2.1,4.3,3.7,6s3.5,3,5.7,4c2.2,1,4.7,1.5,7.4,1.5c2.7,0,5.2-0.5,7.4-1.5
		c2.2-1,4.1-2.3,5.7-4s2.8-3.7,3.7-6C88.1,438.3,88.5,435.9,88.5,433.3z"/>
	<path class="st0" d="M137.9,452L111,416h-0.2v36h-1.2v-37.5h1.6l26.9,35.9h0.2v-35.9h1.2V452H137.9z"/>
	<path class="st0" d="M161.4,452v-37.5h1.2V451h18.6v1.1H161.4z"/>
	<path class="st0" d="M203,435.6V452h-1.2v-16.4L189,414.5h1.4l12.1,19.9l12.1-19.9h1.3L203,435.6z"/>
	<path class="st0" d="M281.9,452l-4.4-10.7h-21.8l-4.6,10.7h-1.3l16.3-37.5h1.5l15.6,37.5H281.9z M266.8,415.3l-10.6,25h21
		L266.8,415.3z"/>
	<path class="st0" d="M358.8,452v-36.2h-0.2L342,452h-1l-16.5-36.2h-0.2V452h-1.2v-37.5h2.1l16.3,35.8l16.3-35.8h2.1V452H358.8z"/>
	<path class="st0" d="M409.2,452l-4.4-10.7H383l-4.6,10.7h-1.3l16.3-37.5h1.5l15.6,37.5H409.2z M394,415.3l-10.6,25h21L394,415.3z"
		/>
	<path class="st0" d="M455.8,452l-26.9-36h-0.2v36h-1.2v-37.5h1.6l26.9,35.9h0.2v-35.9h1.2V452H455.8z"/>
</g>
<g>
	<path class="st0" d="M352.3,206.3c-1,0-1.8,0.3-2.5,0.7c0.2-2,0.3-3.6,0.5-4.5c1.3-9.6,0.8-14.1,1.6-25.4c0.3-4.4,1.1-7.9,1.2-8.5
		c0.5-3.4,1-7.1,1.2-9.9c0.2-3.4,0.3-6.3-0.1-9c0,0,0.7,0.5,1,1.2c0.6,1.3,0.7,2.5,1,3.5c0.2-1,1.4-4.4,1.5-5.3
		c0.3-2.3,0.1-4.7-0.6-6.8c-0.7-2.3-3.3-6.3-6.4-10.5c0.5,0,1,0.1,1.6,0.1c-1.2-12.6-5.1-24.5-17.9-35.3
		c-9.1-7.7-19.4-14.8-29.2-22.2c-0.3-0.2-1-0.3-1.4-0.4c-0.8,1-1.5,1.9-2.1,2.8c-1.3-0.8-2.7-1.6-4-2.4c-0.3-0.2-0.4-0.4-0.6-0.5
		c-2.3-1.8-3.3-1.8-5.7,0c-2.7,2-6.3,2-9,0c-0.7-0.5-1.5-1-2.2-1.5c-0.4,0.1-0.8,0.1-1.2,0.2c0,0.9,0.1,1.8,0,2.6
		c-0.1,0.7-0.6,1.5-0.9,2.2c-1.1-0.5-2.5-0.8-3.3-1.4c-1.2-0.8-2.1-1.8-3.1-2.7c-4.5-4.2-9-8.4-13.6-12.6c-0.6-0.5-1.5-0.9-2.9-1.8
		c-0.4,1.4-0.6,2.2-0.8,2.9c-0.8,3.1-1.2,6.2-2.7,9.1c-0.6,1.3-3.3,2.9-5.3,3.1c-2.5,0.2-4.8-1.2-5.6-3c-0.2-0.6-0.9-1-1.4-1.6h-1.3
		c-0.9,2.1-1.8,4.2-2.9,6.2c-0.3,0.6-1.2,1.1-1.9,1.7c-0.7-0.5-1.5-0.9-1.9-1.4c-3.2-3.9-6.3-7.8-9.5-11.7c-1.4-1.6-2.9-1.7-4.6-0.2
		c-14.3,11.9-28.8,23.7-42.8,35.8c-5.1,4.5-9.5,9.3-13.1,14.3c-3.1,4.3-4.5,8.7-4.9,13.3c0,0,0,0,0,0c-4.5,6.3-7.5,13.6-8.4,21.9
		c1.8-0.4,3.5-0.7,5.6-1.2c-0.4,2.8-0.8,5-0.9,7.3c-0.1,1.9,0.1,3.8,0.6,5.6c0.8,2.7,2.2,5.3,2.9,8c0.7,2.9,3.3,20.4,5.8,37.5
		c-3.6,0.5-7.2,3.3-7.2,9.6c0,7.1,1.2,12.9,2.1,16.3c0.9,3.1,2.8,6.7,3.5,10.7c0.6,4,0.4,8.1,2.2,10.8c1.5,2.2,3.2,4.5,6.6,4.5
		c0.1,0,0.3-0.2,0.4-0.4c1.8,14.7,3.9,34,4.7,39.9c9.8,30.6,47.6,38.8,61.3,45.7c5.3,2.7,10.8,2.9,16.1-0.3c2.3-1.4,4.5-1.2,6.5,0.9
		c0.6,0.7,2.3,1,3.1,0.7c2.2-1,2.9,0.1,3.9,1.7c0.8,1.3,2.3,2.2,3.4,3.3c0.8-1.1,1.8-2.2,2.4-3.4c2.3-4.6,3.4-4.7,6.4-0.6
		c1.2,1.7,2.4,2.8,4.7,1.3c4.6-2.9,9.3-5.5,14-8c9.8-5.2,40-10.5,47.4-41.3c0.3-5.4,1.4-22.1,2.6-40c0.1,0.3,0.2,0.4,0.4,0.4
		c3.4,0,5.2-2.3,6.6-4.5c1.7-2.7,1.5-6.7,2.2-10.8c0.6-4,2.6-7.6,3.5-10.7c1-3.3,2.1-9.2,2.1-16.3
		C360.8,209,356.3,206.3,352.3,206.3z M297.3,303.6c-0.1,0.6-0.4,1.1-0.5,1.7c-0.9,9.6-4.5,10.8-13.3,11.4c-3,0.2-5.9,0.7-8.9,0.8
		c-3.2,0.1-5.2-1.4-5.1-5.2c0-0.7-0.1-1.5-0.1-2.2c-0.7-10.2-2.2-11.6-11.4-10.9c-2.9,0.2-4.5,1.3-4.5,4.7c0,1.9-0.2,3.8-0.7,5.6
		c-1.1,3.7-3.4,6.6-7.3,6.2c-6.4-0.6-12.9-1.3-19.2-2.6c-4.1-0.9-5.2-5.1-5.9-9.1c-0.4-2.3-0.3-4.6-0.5-7c-0.8-8.6,3-15.3,8.4-20.9
		c4.1-4.2,8.7-7.9,13.2-11.5c1-0.8,3.3-0.8,4.4-0.1c5,3.2,9.7,3.7,14.9,0.4c1-0.6,3.6,0.4,4.7,1.5c2.3,2.3,3.7,3,5.8-0.3
		c0.7-1.1,3.2-2,4.3-1.6c8.2,2.6,18.1,9.1,21.2,21.2C298,291.8,298.7,297.5,297.3,303.6z M327.4,270.3c-3.9,2.9-8.2,5.2-12.5,7.7
		c-3.4,2-7.1,2-10.2-0.2c-5.2-3.7-10.2-7.6-15.1-11.6c-2.8-2.3-5.4-4.8-8-7.3c-1.9-1.9-3.5-3.4-6.2-0.7c-0.6,0.6-3.3,0.1-4.7-0.7
		c-2.1-1.1-3.5-1.3-5.4,0.3c-0.9,0.7-3.4,0.8-4.5,0.2c-1.9-1.2-3.3-1.6-5.1-0.2c-0.6,0.5-12-1.6-12.7-1.9c-1.1-0.4-2.8-1.1-3.6-0.6
		c-3.3,1.8-6.5,3.8-9.5,6.1c-4.2,3.3-8,7.1-12.3,10.3c-4.2,3.2-9.6,3.4-13.9,0.3c-7-5.1-20-13.6-26.1-20.2c-1.2-1.2-6.7-9-6.7-27.6
		c-0.5-26.6,1.6-48.2,5-74.6c11.8-37.2,45.7-39.4,58.4-38.5c-2.9,2.6-5.9,4.8-9.2,6.5c-0.1,0.1-0.2,0.2-0.3,0.3c-2.5,1.5-5,3-8,3.4
		c-0.4,0.1-0.9,0.4-1,0.6c-0.1,0.4,0.2,1,0.5,1.2c0.9,0.6,1.8,1.2,2.7,1.5c2.9,0.9,5.8,1,8.7,0.6c1.5-0.5,3-0.9,4.5-1.4
		c0.6-0.2,1.1-0.4,1.7-0.6c4.5-2.2,8.8-4.5,12.8-7c0.3-0.2,0.6-0.4,1-0.7c3,1,6,1.9,8.5,1.9c5.7,0,13.2-4.5,16.5-5.8
		c5.7-2.2,45-0.7,60.1,37.9c3.6,10.7,7.1,22.2,8.6,37.9c0.9,9.8,0.2,19.6,0.2,29.5c0.1,0,0.2,0,0.3,0c0,9-0.1,15.3,0,24.3
		C342.4,252.6,336.5,263.6,327.4,270.3z"/>
	<path class="st0" d="M289.1,275.3c-0.5-0.2-1.1-0.4-1.7-0.5c-4.1-0.7-8,0.1-11.9,0.9c-0.2,0-0.5,0.3-0.5,0.5c0,0.2,0.2,0.4,0.4,0.5
		c0.5,0.2,1.1,0.3,1.7,0.3c0.9,0.1,1.2,0.4,0.8,1.1c-1.3,2.1-2.5,4.1-3.9,6.1c-1.3,1.9-3.5,3-6.2,3.4c-4.2,0.6-8.4,1.2-12.6,1.6
		c-3.7,0.3-7.4,0.4-11,0.6c-0.4,0-0.9,0.1-1.3,0.2c0,0.1,0,0.2,0,0.3c0.3,0.1,0.6,0.2,1,0.2c1.7,0.1,3.5,0.2,5.2,0.2
		c5.7,0,11.5-0.3,17.2-0.7c5-0.4,9-1.8,11.8-4.9c1.9-2.2,3.7-4.4,5.4-6.7c0.5-0.7,1.1-0.9,2.1-1.1c1.2-0.2,2.4-0.4,3.5-0.8
		C289.8,276.3,289.9,275.7,289.1,275.3z"/>
	<path class="st0" d="M263.7,233.1c0,0.4,0.2,0.8,0.2,1.3c0.1,0,0.3,0,0.4,0c0.1-0.3,0.2-0.6,0.3-0.9c0.1-1.6,0.3-3.3,0.3-4.9
		c0-5.5-0.3-10.9-1-16.4c-0.2-2.1-0.7-4-1.6-5.7c-0.3,2.2-0.6,4.5-1,6.7c0.6,3.2,1.2,6.4,1.6,9.6C263.4,226,263.5,229.5,263.7,233.1
		z"/>
	<path class="st0" d="M253.4,245.6c-2.8-1.9-5.7-3.6-8.6-5.3c-0.8-0.5-1.7-0.6-2.5-0.8c-2.3,0.3-3.7,1.7-4.6,3.5
		c-1.1,2.1-0.6,3.4,1.7,4c2.5,0.7,5.1,1.1,7.7,0.3c0.7-0.2,1.7-0.2,2.4,0.1c1.9,0.8,3.8,1.8,5.7,2.6c0.4,0.2,0.9,0.1,1.3,0.2
		c-0.1-0.4,0-0.9-0.2-1.2C255.4,247.8,254.6,246.5,253.4,245.6z"/>
	<path class="st0" d="M276.5,239.5c-0.8,0.2-1.7,0.3-2.5,0.8c-2.9,1.7-5.8,3.4-8.6,5.3c-1.2,0.8-2,2.1-2.9,3.3
		c-0.2,0.3-0.1,0.8-0.2,1.2c0.4-0.1,0.9,0,1.3-0.2c1.9-0.9,3.7-1.9,5.7-2.6c0.7-0.3,1.7-0.3,2.4-0.1c2.6,0.8,5.2,0.4,7.7-0.3
		c2.3-0.6,2.8-1.9,1.7-4C280.2,241.2,278.8,239.8,276.5,239.5z"/>
	<path class="st0" d="M243.7,175.5c-0.5-1.9-1.7-2.9-3.6-3.2c-5.8-1.1-11.6-2.3-17.4-3.5c-2.6-0.5-5.1-1.1-7.9-1.6
		c0.5-0.7,0.9-1.2,1.6-2.1c-1,0-1.7-0.1-2.2,0c-2.6,0.5-5.2,1-7.7,1.8c-6.9,2.3-13.7,4.7-20.5,7.1c-0.6,0.2-1.5,0.7-1.7,1.3
		c-0.9,3-0.8,6.1,0.1,8.8c3.6-1.4,7-3,10.5-3.9c5.4-1.4,10.9-2.4,16.5-1c1.5,0.4,3.1,0.9,4.6,1.2c5.4,1,10.7,1.9,16.1,2.8
		c4.6,0.7,9.3,1.3,14.5,2.1C245.5,181.4,244.5,178.5,243.7,175.5z"/>
	<path class="st0" d="M244.9,160c0.3,5,2.6,9.1,4.1,13.9C249.5,169.3,247.3,161.4,244.9,160z"/>
	<path class="st0" d="M205.3,196.2c-2.1,2-3.3,4.3-3.6,6.8l30.2,2.7l-20.1-13.6C209.1,193.2,206.9,194.6,205.3,196.2z"/>
	<path class="st0" d="M326.2,174c-6.8-2.4-13.6-4.9-20.5-7.1c-2.5-0.8-5.2-1.2-7.7-1.8c-0.6-0.1-1.2,0-2.2,0
		c0.7,0.9,1.1,1.4,1.6,2.1c-2.7,0.6-5.3,1.1-7.9,1.6c-5.8,1.2-11.6,2.4-17.4,3.5c-1.9,0.4-3,1.3-3.6,3.2c-0.8,3-1.8,6-3,9.7
		c5.2-0.7,9.9-1.3,14.5-2.1c5.4-0.9,10.7-1.8,16.1-2.8c1.6-0.3,3.1-0.8,4.6-1.2c5.6-1.4,11.1-0.4,16.5,1c3.5,0.9,6.9,2.5,10.5,3.9
		c0.9-2.7,1-5.7,0.1-8.8C327.7,174.7,326.9,174.2,326.2,174z"/>
	<path class="st0" d="M267.3,160c-2.3,1.4-4.6,9.3-4.1,13.9C264.8,169.1,267,165,267.3,160z"/>
	<path class="st0" d="M300.5,192.1l-20.1,13.6l30.2-2.7c-0.2-2.4-1.4-4.7-3.6-6.8C305.3,194.6,303.1,193.2,300.5,192.1z"/>
	<path class="st0" d="M338.4,339.6c0-1.5,0.3-3,0.9-4.3c0.6-1.3,1.4-2.5,2.3-3.4c1-1,2.1-1.7,3.4-2.3s2.7-0.8,4.2-0.8
		c1.5,0,2.9,0.3,4.2,0.8c1.3,0.5,2.5,1.3,3.5,2.3c1,1,1.8,2.1,2.3,3.4c0.6,1.3,0.9,2.7,0.9,4.2c0,1.5-0.3,3-0.9,4.3
		c-0.6,1.3-1.4,2.5-2.3,3.4c-1,1-2.1,1.7-3.5,2.3c-1.3,0.5-2.7,0.8-4.2,0.8c-1.5,0-2.9-0.3-4.2-0.8s-2.5-1.3-3.4-2.3
		c-1-1-1.8-2.1-2.3-3.4C338.7,342.6,338.4,341.2,338.4,339.6z M340.1,339.6c0,1.3,0.2,2.5,0.7,3.6c0.5,1.1,1.1,2.1,2,2.9
		c0.8,0.8,1.8,1.5,2.9,1.9s2.3,0.7,3.6,0.7c1.3,0,2.5-0.2,3.6-0.7s2.1-1.1,2.9-2c0.8-0.8,1.5-1.8,2-2.9s0.7-2.3,0.7-3.7
		c0-1.3-0.2-2.5-0.7-3.6c-0.5-1.1-1.1-2.1-2-2.9c-0.8-0.8-1.8-1.5-2.9-1.9s-2.3-0.7-3.6-0.7c-1.3,0-2.5,0.2-3.6,0.7
		c-1.1,0.5-2.1,1.1-2.9,1.9s-1.5,1.8-2,2.9C340.3,337.1,340.1,338.3,340.1,339.6z M345.2,333.4h4.6c1.5,0,2.6,0.3,3.3,0.9
		c0.7,0.6,1.1,1.5,1.1,2.7c0,1.1-0.3,1.9-1,2.5c-0.6,0.5-1.4,0.8-2.3,0.9l3.6,5.5h-1.9l-3.4-5.4h-2.2v5.4h-1.7V333.4z M346.9,339
		h2.1c0.4,0,0.8,0,1.2,0c0.4,0,0.8-0.1,1.1-0.2s0.6-0.3,0.8-0.6s0.3-0.7,0.3-1.2c0-0.4-0.1-0.8-0.2-1c-0.2-0.3-0.4-0.5-0.7-0.6
		c-0.3-0.1-0.6-0.2-0.9-0.3c-0.3,0-0.7-0.1-1-0.1h-2.7V339z"/>
</g>
</svg>
