<?xml version="1.0" encoding="utf-8"?>
<!-- Generator: Adobe Illustrator 26.0.3, SVG Export Plug-In . SVG Version: 6.00 Build 0)  -->
<svg version="1.1" id="Capa_1" xmlns="http://www.w3.org/2000/svg" xmlns:xlink="http://www.w3.org/1999/xlink" x="0px" y="0px"
	 viewBox="0 0 700 700" style="enable-background:new 0 0 700 700;" xml:space="preserve">
<style type="text/css">
	.st0{fill:#D0DA8E;}
	.st1{fill:#0E313A;}
	.st2{fill:#AFC681;}
	.st3{fill:#90AB7A;}
	.st4{fill:#5C8466;}
	.st5{filter:url(#Adobe_OpacityMaskFilter);}
	.st6{fill:url(#SVGID_00000029022043562525925110000005692910418569897614_);}
	.st7{mask:url(#SVGID_1_);}
	.st8{opacity:0.26;}
	.st9{fill:#66886B;}
	.st10{opacity:0.75;}
</style>
<g>
	<g>
		<path class="st0" d="M553.2,227.3c-1.9-17.9-76-71.1-216.3-56.6c-117,12.1-200.9,79.4-196.7,102.6c4.5,24.9,103.5,39.1,216.1,25.7
			C468.7,285.5,556.4,257.5,553.2,227.3z"/>
	</g>
	<g id="XMLID_00000091001955226148209270000009822098478060371364_">
		<g>
			<path class="st0" d="M422.4,281.8c0.7,4.8-6.8,8.7-19.1,11.8c-15,2.5-30.8,4.8-47.1,6.7c-1.9,0.2-3.7,0.4-5.6,0.6
				c-9.5,0.8-18.7,1.5-27.3,2.1c-25.2,1.4-42.9,0.8-43.5-5c-1-8.9,28.9-17.4,69.3-21.6C392.3,271.9,421.3,274.3,422.4,281.8z"/>
			<path class="st1" d="M399.6,169.9c-19.2-0.8-40.1-0.2-62.8,2.2c-20.4,2.1-39.9,5.9-58,10.9h0c-81.5,22.3-136.6,67.9-138.8,88.7
				c19.7-14.3,82-52.5,202.9-66.9c117.3-14,185.6,10.7,209.9,22.2C547.8,210.9,495.7,173.7,399.6,169.9z"/>
			<path class="st2" d="M399.6,169.9c-19.2-0.8-40.1-0.2-62.8,2.2c-20.4,2.1-39.9,5.9-58,10.9h0c0,0,7.2-48.5,55.4-53.4
				C382.4,124.5,399.6,169.9,399.6,169.9z"/>
			<path class="st3" d="M446.5,275.1c-0.5-4.5-6.4-8.3-17.2-10.9c-17.5-4.2-47.8-5.2-88.2-0.9c-31.6,3.4-56.2,10.1-71,17.4
				c-10.6,5.3-16.1,11-15.4,16.1c1.2,8.5,29.5,8.7,68.5,6.1c-25.2,1.4-42.9,0.8-43.5-5c-1-8.9,28.9-17.4,69.3-21.6
				c43.3-4.5,72.3-2.1,73.3,5.4c0.7,4.8-6.8,8.7-19.1,11.8c7.9-1.3,15.6-2.7,23.1-4.2C439.4,285.5,447.1,280.8,446.5,275.1z"/>
			<path class="st4" d="M530,235.8c-34.3-11.5-95.9-24.1-187.1-13.2c-88.5,10.6-145.6,33.9-177.6,51.2c-7.2,3.9-13.2,7.5-17.9,10.6
				c3.8,2.8,8.9,5.3,15.2,7.5c34.6,12.6,104.9,17.6,183.1,9.5c-7.9,0.6-15.4,1.2-22.4,1.6c-39,2.6-67.4,2.4-68.5-6.1
				c-0.7-5.1,4.8-10.8,15.4-16.1c14.8-7.4,39.4-14,71-17.4c40.3-4.4,70.6-3.3,88.2,0.9c10.8,2.6,16.7,6.4,17.2,10.9
				c0.6,5.7-7.1,10.4-20.1,14.3c49.2-9.7,88.6-22.3,109.8-36.3c5.1-3.4,9.1-6.8,12-10.3C543.3,240.6,537.3,238.3,530,235.8z"/>
			<path class="st1" d="M531.8,235.6c-33.9-12.4-96.1-26.5-188.9-15.4C252.7,231,195.1,255.9,163.5,274c-6.6,3.8-12,7.2-16.4,10.2
				c0.1,0.1,0.2,0.2,0.3,0.2c4.7-3.1,10.7-6.7,17.9-10.6c32-17.3,89.1-40.6,177.6-51.2c91.2-10.9,152.8,1.7,187.1,13.2
				c7.3,2.4,13.3,4.8,18.1,6.9c0.1-0.1,0.2-0.2,0.2-0.3C543.9,240.4,538.4,238,531.8,235.6z"/>
			<path class="st4" d="M553.2,228.7c-0.1-0.5-0.2-1.1-0.4-1.7c-24.3-11.5-92.6-36.2-209.9-22.2c-120.9,14.4-183.2,52.6-202.9,66.9
				c-0.1,1.1-0.1,2.1,0.1,3c0.1,0.6,0.3,1.2,0.5,1.8c1,2.8,3.2,5.4,6.5,7.8c4.4-3,9.8-6.5,16.4-10.2c31.6-18.1,89.2-43,179.5-53.7
				c92.8-11.1,154.9,3,188.9,15.4c6.6,2.4,12.1,4.7,16.6,6.8c2.4-3,3.9-6,4.5-9C553.3,231.9,553.3,230.3,553.2,228.7z"/>
		</g>
	</g>
</g>
<defs>
	<filter id="Adobe_OpacityMaskFilter" filterUnits="userSpaceOnUse" x="261" y="281.8" width="264.9" height="395.3">
		<feColorMatrix  type="matrix" values="1 0 0 0 0  0 1 0 0 0  0 0 1 0 0  0 0 0 1 0"/>
	</filter>
</defs>
<mask maskUnits="userSpaceOnUse" x="261" y="281.8" width="264.9" height="395.3" id="SVGID_1_">
	<g class="st5">
		
			<linearGradient id="SVGID_00000049931108725077566100000006383590222890192259_" gradientUnits="userSpaceOnUse" x1="364.5273" y1="308.6393" x2="397.9069" y2="675.8146" gradientTransform="matrix(0.9997 -3.297690e-03 -3.297690e-03 0.9633 -0.213 -2.3679)">
			<stop  offset="0.272" style="stop-color:#FFFFFF"/>
			<stop  offset="0.3287" style="stop-color:#E6E6E6"/>
			<stop  offset="0.5189" style="stop-color:#959595"/>
			<stop  offset="0.6879" style="stop-color:#555555"/>
			<stop  offset="0.8293" style="stop-color:#272727"/>
			<stop  offset="0.9376" style="stop-color:#0B0B0B"/>
			<stop  offset="1" style="stop-color:#000000"/>
		</linearGradient>
		<polygon style="fill:url(#SVGID_00000049931108725077566100000006383590222890192259_);" points="550.3,631.9 239.7,659.9 
			207.2,298.2 517.8,270.2 		"/>
	</g>
</mask>
<g class="st7">
	<g class="st8">
		<polygon class="st9" points="422.7,290.1 525.9,655.1 261,663.3 279.8,305.4 		"/>
	</g>
	<g class="st10">
		<polygon class="st0" points="279.8,298 349.8,677.1 437.1,674.7 422.4,281.8 		"/>
	</g>
</g>
</svg>
